<?xml version="1.0" encoding="utf-8"?>
<!-- Generator: Adobe Illustrator 28.2.0, SVG Export Plug-In . SVG Version: 6.00 Build 0)  -->
<svg version="1.1" id="Layer_1" xmlns="http://www.w3.org/2000/svg" xmlns:xlink="http://www.w3.org/1999/xlink" x="0px" y="0px"
	 viewBox="0 0 24 24" style="enable-background:new 0 0 24 24;" xml:space="preserve">
<style type="text/css">
	.st0{opacity:0.25;enable-background:new    ;}
	.st1{fill:#23064C;}
</style>
<path class="st0" d="M12,1C5.9,1,1,5.9,1,12s4.9,11,11,11s11-4.9,11-11S18.1,1,12,1z M12,20c-4.4,0-8-3.6-8-8s3.6-8,8-8s8,3.6,8,8
	S16.4,20,12,20z"/>
<path class="st1" d="M4.1,10.7C4.6,6.8,8.1,4,12,4s7.3,2.8,7.9,6.7l1.5,0l0,0c0.8,0,1.6,0,1.6,0c0-0.1,0-0.2-0.1-0.5
	c-1-6-6.6-10.1-12.6-9.1c-4.7,0.8-8.5,4.4-9.2,9.6"/>
<path class="st1" d="M1.2,10.3"/>
</svg>
