<?xml version="1.0" encoding="UTF-8"?>
<svg xmlns="http://www.w3.org/2000/svg" viewBox="0 0 726.48 599.74">
  <g id="Layer_1" data-name="Layer 1">
    <g id="Layer_1-2" data-name="Layer 1">
      <g style="opacity: .7;">
        <path d="M26.45,583.38c-4,0-7.63-.67-10.88-2s-6.02-3.34-8.31-6c-2.29-2.67-4.08-5.95-5.35-9.83-1.28-3.89-1.91-8.41-1.91-13.58s.64-9.62,1.91-13.53c1.28-3.92,3.06-7.21,5.35-9.88s5.06-4.67,8.31-6,6.88-2,10.88-2,7.63.67,10.88,2,6.03,3.34,8.35,6c2.32,2.67,4.1,5.96,5.35,9.88s1.87,8.43,1.87,13.53-.62,9.69-1.87,13.58-3.03,7.17-5.35,9.83c-2.32,2.67-5.11,4.67-8.35,6-3.25,1.33-6.88,2-10.88,2ZM26.45,573.19c4.35,0,7.82-1.45,10.4-4.35,2.58-2.9,3.87-6.96,3.87-12.18v-9.4c0-5.22-1.29-9.28-3.87-12.18-2.58-2.9-6.05-4.35-10.4-4.35s-7.82,1.45-10.4,4.35-3.87,6.96-3.87,12.18v9.4c0,5.22,1.29,9.28,3.87,12.18,2.58,2.9,6.05,4.35,10.4,4.35Z" style="fill: #fff; stroke-width: 0px;"/>
        <path d="M63.87,536.9h11.14v7.48h.35c.81-2.61,2.35-4.68,4.61-6.22s4.9-2.31,7.92-2.31c5.8,0,10.23,2.04,13.27,6.14,3.05,4.09,4.57,9.94,4.57,17.54s-1.52,13.55-4.57,17.67-7.47,6.18-13.27,6.18c-3.02,0-5.64-.78-7.88-2.35-2.23-1.57-3.79-3.65-4.66-6.27h-.35v24.98h-11.14v-62.83h0,0ZM84.32,574.15c2.9,0,5.25-.96,7.05-2.87,1.8-1.92,2.7-4.5,2.7-7.75v-7.83c0-3.25-.9-5.84-2.7-7.79-1.8-1.94-4.15-2.92-7.05-2.92-2.67,0-4.89.67-6.66,2s-2.65,3.1-2.65,5.31v14.45c0,2.38.88,4.21,2.65,5.48,1.77,1.28,3.99,1.91,6.66,1.91h0Z" style="fill: #fff; stroke-width: 0px;"/>
        <path d="M134.45,583.38c-3.37,0-6.37-.57-9.01-1.7s-4.87-2.73-6.7-4.79c-1.83-2.06-3.23-4.55-4.22-7.48s-1.48-6.22-1.48-9.88.48-6.84,1.44-9.75c.96-2.9,2.33-5.38,4.13-7.44,1.8-2.06,4-3.65,6.61-4.79,2.61-1.13,5.57-1.7,8.88-1.7,3.54,0,6.61.61,9.22,1.83s4.76,2.87,6.44,4.96c1.68,2.09,2.94,4.51,3.79,7.27.84,2.76,1.26,5.7,1.26,8.83v3.66h-30.2v1.12c0,3.28.93,5.92,2.78,7.91,1.86,1.99,4.61,2.98,8.27,2.98,2.78,0,5.06-.58,6.83-1.73,1.77-1.15,3.35-2.62,4.74-4.41l6,6.72c-1.86,2.62-4.4,4.67-7.61,6.15-3.22,1.48-6.95,2.22-11.18,2.22v.02h0ZM134.27,544.21c-2.96,0-5.31.99-7.05,2.96s-2.61,4.53-2.61,7.66v.7h18.62v-.78c0-3.13-.77-5.67-2.31-7.61s-3.76-2.92-6.66-2.92h.01Z" style="fill: #fff; stroke-width: 0px;"/>
        <path d="M164.65,582.33v-45.43h11.14v7.57h.44c.93-2.44,2.39-4.48,4.4-6.14,2-1.65,4.77-2.48,8.31-2.48,4.7,0,8.3,1.54,10.79,4.61,2.49,3.08,3.74,7.46,3.74,13.14v28.72h-11.14v-27.59c0-3.25-.58-5.69-1.74-7.31s-3.08-2.44-5.74-2.44c-1.16,0-2.28.16-3.35.48s-2.03.78-2.87,1.39-1.52,1.36-2.04,2.26c-.52.9-.78,1.96-.78,3.18v30.02h-11.14l-.02.02h0Z" style="fill: #fff; stroke-width: 0px;"/>
        <path d="M235.4,583.38c-5.22,0-9.65-.93-13.27-2.79-3.63-1.86-6.74-4.3-9.35-7.32l7.75-7.5c2.09,2.42,4.42,4.26,7.01,5.53,2.58,1.27,5.44,1.9,8.57,1.9,3.54,0,6.21-.76,8.01-2.29,1.8-1.53,2.7-3.58,2.7-6.17,0-2.02-.58-3.66-1.74-4.92-1.16-1.27-3.34-2.19-6.53-2.76l-5.74-.86c-12.13-1.92-18.19-7.81-18.19-17.69,0-2.73.51-5.2,1.52-7.41,1.01-2.21,2.48-4.09,4.39-5.66s4.22-2.77,6.92-3.62c2.7-.84,5.76-1.26,9.18-1.26,4.58,0,8.59.76,12.01,2.27s6.35,3.75,8.79,6.71l-7.83,7.41c-1.51-1.84-3.34-3.33-5.48-4.49-2.15-1.15-4.85-1.73-8.09-1.73s-5.79.62-7.44,1.85c-1.65,1.24-2.48,2.98-2.48,5.22s.67,4,2,5.09,3.48,1.9,6.44,2.42l5.66,1.05c6.15,1.1,10.69,3.06,13.62,5.88,2.93,2.82,4.39,6.75,4.39,11.8,0,2.9-.51,5.53-1.52,7.88-1.02,2.35-2.5,4.39-4.44,6.1-1.94,1.71-4.32,3.04-7.14,3.96-2.81.93-6.05,1.39-9.7,1.39h-.02,0Z" style="fill: #fff; stroke-width: 0px;"/>
        <path d="M287.44,583.38c-5.22,0-9.65-.93-13.27-2.79-3.63-1.86-6.74-4.3-9.35-7.32l7.75-7.5c2.09,2.42,4.42,4.26,7.01,5.53,2.58,1.27,5.44,1.9,8.57,1.9,3.54,0,6.21-.76,8.01-2.29,1.8-1.53,2.7-3.58,2.7-6.17,0-2.02-.58-3.66-1.74-4.92-1.16-1.27-3.34-2.19-6.53-2.76l-5.74-.86c-12.13-1.92-18.19-7.81-18.19-17.69,0-2.73.51-5.2,1.52-7.41,1.01-2.21,2.48-4.09,4.39-5.66s4.22-2.77,6.92-3.62c2.7-.84,5.76-1.26,9.18-1.26,4.58,0,8.59.76,12.01,2.27s6.35,3.75,8.79,6.71l-7.83,7.41c-1.51-1.84-3.34-3.33-5.48-4.49-2.15-1.15-4.85-1.73-8.09-1.73s-5.79.62-7.44,1.85c-1.65,1.24-2.48,2.98-2.48,5.22s.67,4,2,5.09,3.48,1.9,6.44,2.42l5.66,1.05c6.15,1.1,10.69,3.06,13.62,5.88s4.39,6.75,4.39,11.8c0,2.9-.51,5.53-1.52,7.88-1.02,2.35-2.5,4.39-4.44,6.1-1.94,1.71-4.32,3.04-7.14,3.96-2.81.93-6.05,1.39-9.7,1.39h-.02Z" style="fill: #fff; stroke-width: 0px;"/>
        <path d="M321.73,582.33v-60.74h39.07v10.18h-27.59v14.71h24.02v10.18h-24.02v25.67h-11.49,0Z" style="fill: #fff; stroke-width: 0px;"/>
        <path d="M392.48,582.33v-60.74h40.03v10.18h-28.54v14.71h25.24v10.18h-25.24v15.49h28.54v10.18h-40.03Z" style="fill: #fff; stroke-width: 0px;"/>
        <path d="M439.21,582.33l15.49-23.06-15.14-22.37h12.71l9.4,15.05h.35l9.31-15.05h11.84l-15.4,22.54,15.49,22.89h-12.71l-9.57-15.66h-.35l-9.57,15.66h-11.85,0Z" style="fill: #fff; stroke-width: 0px;"/>
        <path d="M491.33,536.9h11.14v7.48h.35c.81-2.61,2.35-4.68,4.61-6.22s4.9-2.31,7.92-2.31c5.8,0,10.23,2.04,13.27,6.14,3.05,4.09,4.57,9.94,4.57,17.54s-1.52,13.55-4.57,17.67-7.47,6.18-13.27,6.18c-3.02,0-5.64-.78-7.88-2.35-2.23-1.57-3.79-3.65-4.66-6.27h-.35v24.98h-11.14v-62.83h.01ZM511.79,574.15c2.9,0,5.25-.96,7.05-2.87,1.8-1.92,2.7-4.5,2.7-7.75v-7.83c0-3.25-.9-5.84-2.7-7.79-1.8-1.94-4.15-2.92-7.05-2.92-2.67,0-4.89.67-6.66,2s-2.65,3.1-2.65,5.31v14.45c0,2.38.88,4.21,2.65,5.48,1.77,1.28,3.99,1.91,6.66,1.91h0Z" style="fill: #fff; stroke-width: 0px;"/>
        <path d="M554.69,582.33c-3.83,0-6.64-.96-8.44-2.87s-2.7-4.61-2.7-8.09v-53.43h11.14v55.43h6v8.96h-6Z" style="fill: #fff; stroke-width: 0px;"/>
        <path d="M587.15,583.38c-3.25,0-6.17-.55-8.75-1.65-2.58-1.1-4.79-2.7-6.61-4.79-1.83-2.09-3.23-4.6-4.22-7.53s-1.48-6.22-1.48-9.88.49-6.93,1.48-9.83,2.39-5.38,4.22-7.44c1.83-2.06,4.03-3.64,6.61-4.74,2.58-1.1,5.5-1.65,8.75-1.65s6.18.55,8.79,1.65,4.83,2.68,6.66,4.74c1.83,2.06,3.23,4.54,4.22,7.44s1.48,6.18,1.48,9.83-.49,6.95-1.48,9.88-2.39,5.44-4.22,7.53c-1.83,2.09-4.05,3.68-6.66,4.79-2.61,1.1-5.54,1.65-8.79,1.65ZM587.15,574.41c2.96,0,5.28-.9,6.96-2.7s2.52-4.44,2.52-7.92v-8.44c0-3.42-.84-6.03-2.52-7.83s-4-2.7-6.96-2.7-5.19.9-6.88,2.7c-1.68,1.8-2.52,4.41-2.52,7.83v8.44c0,3.48.84,6.12,2.52,7.92s3.97,2.7,6.88,2.7Z" style="fill: #fff; stroke-width: 0px;"/>
        <path d="M618.13,582.33v-45.43h11.14v9.4h.44c.29-1.22.74-2.39,1.35-3.52s1.41-2.13,2.39-3c.99-.87,2.16-1.57,3.53-2.09,1.36-.52,2.94-.78,4.74-.78h2.44v10.53h-3.48c-3.77,0-6.61.55-8.53,1.65-1.92,1.1-2.87,2.9-2.87,5.4v27.85h-11.15Z" style="fill: #fff; stroke-width: 0px;"/>
        <path d="M670.26,583.38c-3.37,0-6.37-.57-9.01-1.7s-4.87-2.73-6.7-4.79-3.23-4.55-4.22-7.48-1.48-6.22-1.48-9.88.48-6.84,1.44-9.75c.96-2.9,2.33-5.38,4.13-7.44s4-3.65,6.61-4.79c2.61-1.13,5.57-1.7,8.88-1.7,3.54,0,6.61.61,9.22,1.83s4.76,2.87,6.44,4.96,2.94,4.51,3.79,7.27c.84,2.76,1.26,5.7,1.26,8.83v3.66h-30.2v1.12c0,3.28.93,5.92,2.78,7.91,1.86,1.99,4.61,2.98,8.27,2.98,2.79,0,5.06-.58,6.83-1.73,1.77-1.15,3.35-2.62,4.74-4.41l6,6.72c-1.86,2.62-4.39,4.67-7.62,6.15-3.22,1.48-6.95,2.22-11.18,2.22l.02.02h0ZM670.08,544.21c-2.96,0-5.31.99-7.05,2.96s-2.61,4.53-2.61,7.66v.7h18.62v-.78c0-3.13-.77-5.67-2.31-7.61s-3.76-2.92-6.66-2.92h0Z" style="fill: #fff; stroke-width: 0px;"/>
        <path d="M700.45,582.33v-45.43h11.14v9.4h.44c.29-1.22.74-2.39,1.35-3.52s1.41-2.13,2.39-3c.99-.87,2.16-1.57,3.53-2.09,1.36-.52,2.94-.78,4.74-.78h2.44v10.53h-3.48c-3.77,0-6.61.55-8.53,1.65-1.92,1.1-2.87,2.9-2.87,5.4v27.85h-11.15Z" style="fill: #fff; stroke-width: 0px;"/>
      </g>
    </g>
  </g>
  <g id="Layer_3" data-name="Layer 3">
    <g>
      <path d="M394.81,252.44l19.02,19.02c-6.7,9.39-10.07,18.05-6.11,22l13.65,13.65,55.22-55.22-13.65-13.65c-3.95-3.95-12.61-.58-22,6.11l-19.02-19.03" style="fill: #fcd462; stroke-width: 0px;"/>
      <path d="M476.59,251.89l-12.81,12.81,114.38,114.38c6.01-8.82,8.83-16.8,5.08-20.55l-60.15-60.15-46.5-46.5Z" style="fill: #3a556a; stroke-width: 0px;"/>
      <path d="M421.37,307.11l46.5,46.5,60.15,60.15c8.25,8.25,36.92-15.27,50.14-34.67l-114.38-114.38-42.4,42.4Z" style="fill: #64798a; stroke-width: 0px;"/>
      <circle cx="320.47" cy="144.26" r="120.45" style="fill: none; stroke: #6d5699; stroke-miterlimit: 10; stroke-width: 47.62px;"/>
      <path d="M320.47,23.81c66.52,0,120.45,53.93,120.45,120.45s-53.93,120.45-120.45,120.45-119.23-52.71-120.43-118.2" style="fill: none; stroke: #0ebf00; stroke-miterlimit: 10; stroke-width: 47.62px;"/>
      <path d="M320.46,23.81c66.52,0,120.45,53.93,120.45,120.45s-53.93,120.45-120.45,120.45" style="fill: none; stroke: #ffbc00; stroke-miterlimit: 10; stroke-width: 47.62px;"/>
      <path d="M320.46,23.81c66.52,0,120.45,53.93,120.45,120.45" style="fill: none; stroke: red; stroke-miterlimit: 10; stroke-width: 47.62px;"/>
    </g>
  </g>
</svg>