<?xml version="1.0" encoding="UTF-8"?><svg id="Layer_1" xmlns="http://www.w3.org/2000/svg" width="729.4" height="349.92" viewBox="0 0 729.4 349.92"><defs><style>.cls-1{opacity:.6;}.cls-2{stroke-width:0px;}</style></defs><g id="h"><path class="cls-2" d="M17,190.9h61.9c11.5,0,17.3-5.8,17.3-17.4V17.6c0-11.7-5.8-17.6-17.3-17.6H17C5.7,0,0,5.9,0,17.6v155.8c.1,11.7,5.7,17.5,17,17.5h0ZM28.6,24.6h39.1v141.8H28.6V24.6Z"/><path class="cls-2" d="M200,82.2c0-10-5.1-15-15.2-15-4.8,0-11.3.7-19.5,2-6.5,1.1-13,2.1-19.5,3v-4.5h-27.9v168.2h27.9v-45c2,0,5.1.1,9.6.2,4.4.2,7.9.2,10.3.2,10.6,0,18.5-1.4,23.7-4.3,7.2-4,10.7-11,10.7-21v-83.8h-.1ZM171.9,158.4c0,6.2-3,9.3-8.9,9.3h-17.3v-76.2l26.2-.5v67.4h0Z"/><path class="cls-2" d="M235.4,190.9h48.2c10.5,0,15.7-5.1,15.7-15.2v-25.7h-26.7v20.5h-26.2v-34.5h45.2l7.7-7.7v-45.2c0-10.2-5.2-15.2-15.7-15.2h-48.2c-10.5,0-15.7,5.1-15.7,15.2v92.7c0,10,5.3,15.1,15.7,15.1h0ZM246.4,88.2h26.2v29.5h-26.2v-29.5h0Z"/><path class="cls-2" d="M347.5,91.5l26.2-.5v99.9h28v-108.7c0-10-5.1-15-15.2-15-5.1,0-11.7.7-19.6,2-6.4,1-12.9,2-19.4,3v-4.5h-27.9v123.2h27.9s0-99.4,0-99.4Z"/><path class="cls-2" d="M439.9,190.9h57.4c11.5,0,17.3-5.8,17.3-17.4v-45.5c0-6.4-2.1-11.6-6.2-15.5l-57.1-53.9V24.1h34.9v36h28.5V17.4c0-11.5-5.8-17.3-17.3-17.3h-57.4c-11.5,0-17.2,5.9-17.2,17.6v42.4c0,6.2,2.1,11.3,6.2,15.2l57.2,54.1v37.4h-34.9v-38.9h-28.5v45.5c0,11.7,5.7,17.5,17.1,17.5Z"/><path class="cls-2" d="M628.8,173.4v-45.5c0-6.4-2.1-11.6-6.2-15.5l-57.2-53.9V24.1h34.9v36h28.5V17.4c0-11.5-5.8-17.3-17.3-17.3h-57.4c-11.5,0-17.2,5.9-17.2,17.6v42.4c0,6.2,2.1,11.3,6.2,15.2l57.2,54.1v37.4h-34.9v-38.9h-28.5v45.5c0,11.6,5.7,17.4,17.2,17.4h57.4c11.6.1,17.3-5.7,17.3-17.4Z"/><polygon class="cls-2" points="651.5 0 651.5 190.9 680.1 190.9 680.1 106.5 722.3 106.5 722.3 81.7 680.1 81.7 680.1 25.3 729.4 25.3 729.4 0 651.5 0"/></g><g class="cls-1"><path class="cls-2" d="M61.53,333.32h-6.82c-.79,0-1.43-.2-1.91-.59-.49-.39-.85-.89-1.09-1.5l-6.09-15.73h-29.24l-6.09,15.73c-.21.55-.58,1.03-1.09,1.46-.52.42-1.15.64-1.91.64H.46l26.06-65.17h8.96l26.06,65.17ZM18.83,309.13h24.33l-10.23-26.51c-.67-1.64-1.32-3.68-1.96-6.14-.33,1.24-.66,2.39-.98,3.43-.32,1.05-.63,1.96-.93,2.75l-10.23,26.47Z"/><path class="cls-2" d="M99.91,295.44c-.24.33-.49.59-.73.77-.24.18-.59.27-1.05.27s-.95-.19-1.48-.57c-.53-.38-1.21-.8-2.02-1.25-.82-.46-1.81-.87-2.98-1.25-1.17-.38-2.6-.57-4.3-.57-2.24,0-4.23.4-5.96,1.21-1.73.8-3.18,1.96-4.34,3.48-1.17,1.52-2.05,3.35-2.64,5.5-.59,2.15-.89,4.56-.89,7.23s.32,5.27.96,7.44c.64,2.17,1.53,3.99,2.68,5.46,1.15,1.47,2.55,2.59,4.21,3.36,1.65.77,3.51,1.16,5.57,1.16s3.59-.23,4.87-.71c1.27-.47,2.33-.99,3.18-1.57.85-.58,1.55-1.1,2.09-1.57.55-.47,1.09-.71,1.64-.71.7,0,1.21.26,1.55.77l2.27,2.96c-2,2.46-4.5,4.25-7.5,5.39s-6.17,1.71-9.5,1.71c-2.88,0-5.56-.53-8.03-1.59-2.47-1.06-4.62-2.6-6.43-4.62-1.82-2.02-3.25-4.49-4.3-7.44-1.05-2.94-1.57-6.29-1.57-10.05,0-3.43.48-6.59,1.43-9.5.96-2.91,2.35-5.42,4.18-7.53,1.83-2.11,4.1-3.75,6.8-4.93,2.7-1.18,5.79-1.77,9.28-1.77,3.21,0,6.06.52,8.55,1.57,2.49,1.05,4.68,2.52,6.59,4.43l-2.14,2.91Z"/><path class="cls-2" d="M142.38,295.44c-.24.33-.49.59-.73.77-.24.18-.59.27-1.05.27s-.95-.19-1.48-.57c-.53-.38-1.21-.8-2.02-1.25-.82-.46-1.81-.87-2.98-1.25-1.17-.38-2.6-.57-4.3-.57-2.24,0-4.23.4-5.96,1.21-1.73.8-3.18,1.96-4.34,3.48-1.17,1.52-2.05,3.35-2.64,5.5-.59,2.15-.89,4.56-.89,7.23s.32,5.27.96,7.44c.64,2.17,1.53,3.99,2.68,5.46,1.15,1.47,2.55,2.59,4.21,3.36,1.65.77,3.51,1.16,5.57,1.16s3.59-.23,4.87-.71c1.27-.47,2.33-.99,3.18-1.57.85-.58,1.55-1.1,2.09-1.57.55-.47,1.09-.71,1.64-.71.7,0,1.21.26,1.55.77l2.27,2.96c-2,2.46-4.5,4.25-7.5,5.39s-6.17,1.71-9.5,1.71c-2.88,0-5.56-.53-8.03-1.59-2.47-1.06-4.62-2.6-6.43-4.62-1.82-2.02-3.25-4.49-4.3-7.44-1.05-2.94-1.57-6.29-1.57-10.05,0-3.43.48-6.59,1.43-9.5.96-2.91,2.35-5.42,4.18-7.53,1.83-2.11,4.1-3.75,6.8-4.93,2.7-1.18,5.79-1.77,9.28-1.77,3.21,0,6.06.52,8.55,1.57,2.49,1.05,4.68,2.52,6.59,4.43l-2.14,2.91Z"/><path class="cls-2" d="M172.07,286.53c3.37,0,6.4.56,9.12,1.68,2.71,1.12,5.02,2.71,6.91,4.77,1.89,2.06,3.35,4.56,4.37,7.48,1.02,2.93,1.52,6.19,1.52,9.8s-.51,6.91-1.52,9.82c-1.02,2.91-2.47,5.4-4.37,7.46-1.9,2.06-4.2,3.65-6.91,4.75-2.71,1.11-5.75,1.66-9.12,1.66s-6.4-.55-9.12-1.66c-2.71-1.11-5.02-2.69-6.93-4.75-1.91-2.06-3.38-4.55-4.41-7.46-1.03-2.91-1.55-6.18-1.55-9.82s.52-6.87,1.55-9.8c1.03-2.92,2.5-5.42,4.41-7.48,1.91-2.06,4.22-3.65,6.93-4.77,2.71-1.12,5.75-1.68,9.12-1.68ZM172.07,327.63c4.55,0,7.94-1.52,10.19-4.57,2.24-3.05,3.36-7.3,3.36-12.75s-1.12-9.76-3.36-12.82c-2.24-3.06-5.64-4.59-10.19-4.59-2.3,0-4.31.39-6,1.18-1.7.79-3.12,1.92-4.25,3.41-1.14,1.49-1.99,3.31-2.55,5.48-.56,2.17-.84,4.62-.84,7.34s.28,5.17.84,7.32c.56,2.15,1.41,3.96,2.55,5.43,1.14,1.47,2.55,2.6,4.25,3.39,1.7.79,3.7,1.18,6,1.18Z"/><path class="cls-2" d="M211,287.25v29.38c0,3.49.8,6.18,2.41,8.09s4.03,2.87,7.28,2.87c2.36,0,4.59-.56,6.69-1.68,2.09-1.12,4.02-2.68,5.78-4.68v-33.97h8.09v46.07h-4.82c-1.15,0-1.88-.56-2.18-1.68l-.64-4.96c-2,2.21-4.24,4-6.73,5.34s-5.34,2.02-8.55,2.02c-2.52,0-4.74-.42-6.66-1.25-1.93-.83-3.54-2.01-4.84-3.52-1.3-1.52-2.28-3.35-2.93-5.5-.65-2.15-.98-4.53-.98-7.14v-29.38h8.09Z"/><path class="cls-2" d="M254.56,333.32v-46.07h4.82c1.15,0,1.88.56,2.18,1.68l.64,5c2-2.21,4.24-4,6.71-5.37,2.47-1.36,5.33-2.05,8.57-2.05,2.52,0,4.74.42,6.66,1.25,1.92.83,3.53,2.02,4.82,3.55,1.29,1.53,2.27,3.37,2.93,5.53.67,2.15,1,4.53,1,7.14v29.33h-8.09v-29.33c0-3.49-.8-6.19-2.39-8.12-1.59-1.92-4.02-2.89-7.3-2.89-2.4,0-4.63.58-6.71,1.73-2.08,1.15-3.99,2.71-5.75,4.68v33.92h-8.09Z"/><path class="cls-2" d="M319.09,334.05c-3.64,0-6.44-1.02-8.39-3.05-1.96-2.03-2.93-4.96-2.93-8.78v-28.19h-5.55c-.49,0-.89-.14-1.23-.43-.33-.29-.5-.74-.5-1.34v-3.23l7.55-.96,1.86-14.23c.06-.46.26-.83.59-1.11.33-.29.76-.43,1.27-.43h4.09v15.87h13.19v5.87h-13.19v27.65c0,1.94.47,3.38,1.41,4.32.94.94,2.15,1.41,3.64,1.41.85,0,1.58-.11,2.21-.34.62-.23,1.16-.48,1.61-.75.45-.27.84-.52,1.16-.75.32-.23.6-.34.84-.34.42,0,.8.26,1.14.77l2.36,3.87c-1.4,1.3-3.08,2.33-5.05,3.07-1.97.74-4,1.11-6.09,1.11Z"/><path class="cls-2" d="M368.34,333.32h-8.82v-65.17h8.82v65.17Z"/><path class="cls-2" d="M384.53,333.32v-46.07h4.82c1.15,0,1.88.56,2.18,1.68l.64,5c2-2.21,4.24-4,6.71-5.37s5.33-2.05,8.57-2.05c2.52,0,4.74.42,6.66,1.25,1.92.83,3.53,2.02,4.82,3.55,1.29,1.53,2.27,3.37,2.93,5.53.67,2.15,1,4.53,1,7.14v29.33h-8.09v-29.33c0-3.49-.8-6.19-2.39-8.12-1.59-1.92-4.02-2.89-7.3-2.89-2.39,0-4.63.58-6.71,1.73-2.08,1.15-4,2.71-5.75,4.68v33.92h-8.09Z"/><path class="cls-2" d="M461.47,294.85c-.36.67-.93,1-1.68,1-.46,0-.97-.17-1.55-.5-.58-.33-1.28-.71-2.12-1.11s-1.83-.79-2.98-1.14-2.52-.52-4.09-.52c-1.36,0-2.59.17-3.68.52-1.09.35-2.02.83-2.8,1.43-.77.61-1.36,1.31-1.77,2.12-.41.8-.61,1.67-.61,2.61,0,1.18.34,2.17,1.02,2.96.68.79,1.58,1.47,2.71,2.05,1.12.58,2.39,1.08,3.82,1.52,1.42.44,2.89.91,4.39,1.41,1.5.5,2.96,1.05,4.39,1.66s2.7,1.36,3.82,2.27c1.12.91,2.02,2.02,2.71,3.34.68,1.32,1.02,2.9,1.02,4.75,0,2.12-.38,4.08-1.14,5.89-.76,1.8-1.88,3.37-3.37,4.68-1.49,1.32-3.3,2.36-5.46,3.12s-4.64,1.14-7.46,1.14c-3.21,0-6.12-.52-8.73-1.57-2.61-1.05-4.82-2.39-6.64-4.03l1.91-3.09c.24-.39.53-.7.86-.91.33-.21.77-.32,1.32-.32s1.12.21,1.73.64,1.34.89,2.21,1.41c.86.52,1.91.99,3.14,1.41s2.77.64,4.62.64c1.58,0,2.96-.21,4.14-.61s2.17-.96,2.96-1.66c.79-.7,1.37-1.5,1.75-2.41.38-.91.57-1.88.57-2.91,0-1.27-.34-2.33-1.02-3.16-.68-.83-1.58-1.55-2.71-2.14-1.12-.59-2.4-1.11-3.84-1.55-1.44-.44-2.91-.9-4.41-1.39-1.5-.48-2.97-1.04-4.41-1.66-1.44-.62-2.72-1.4-3.84-2.34-1.12-.94-2.02-2.1-2.71-3.48-.68-1.38-1.02-3.05-1.02-5.03,0-1.76.36-3.45,1.09-5.07.73-1.62,1.79-3.05,3.18-4.27,1.39-1.23,3.11-2.21,5.14-2.93s4.35-1.09,6.96-1.09c3.03,0,5.75.48,8.16,1.43s4.49,2.27,6.25,3.93l-1.82,2.96Z"/><path class="cls-2" d="M474.57,348.92v-61.66h4.82c1.15,0,1.88.56,2.18,1.68l.68,5.46c1.97-2.39,4.22-4.32,6.75-5.78s5.45-2.18,8.75-2.18c2.64,0,5.03.51,7.19,1.52,2.15,1.02,3.99,2.52,5.5,4.5,1.52,1.99,2.68,4.45,3.5,7.39.82,2.94,1.23,6.32,1.23,10.14,0,3.4-.46,6.56-1.36,9.48s-2.21,5.46-3.91,7.59c-1.7,2.14-3.78,3.82-6.25,5.05s-5.25,1.84-8.34,1.84c-2.85,0-5.28-.47-7.3-1.41-2.02-.94-3.8-2.27-5.34-4v20.37h-8.09ZM495.08,292.98c-2.64,0-4.95.61-6.94,1.82-1.99,1.21-3.81,2.93-5.48,5.14v22.28c1.49,2,3.12,3.41,4.89,4.23,1.77.82,3.75,1.23,5.93,1.23,4.27,0,7.56-1.53,9.87-4.59,2.3-3.06,3.46-7.43,3.46-13.1,0-3-.27-5.58-.8-7.73-.53-2.15-1.3-3.92-2.3-5.3-1-1.38-2.23-2.39-3.68-3.02-1.46-.64-3.11-.96-4.96-.96Z"/><path class="cls-2" d="M543,286.53c2.76,0,5.31.46,7.64,1.39,2.33.92,4.35,2.26,6.05,4,1.7,1.74,3.02,3.9,3.98,6.46.96,2.56,1.43,5.48,1.43,8.75,0,1.27-.14,2.12-.41,2.55s-.79.64-1.55.64h-30.65c.06,2.91.46,5.44,1.18,7.59.73,2.15,1.73,3.95,3,5.39,1.27,1.44,2.79,2.52,4.55,3.23,1.76.71,3.73,1.07,5.91,1.07,2.03,0,3.78-.23,5.25-.71,1.47-.47,2.74-.98,3.8-1.52s1.95-1.05,2.66-1.52c.71-.47,1.33-.71,1.84-.71.67,0,1.18.26,1.55.77l2.27,2.96c-1,1.21-2.2,2.27-3.59,3.16-1.39.89-2.89,1.63-4.48,2.21-1.59.58-3.24,1.01-4.93,1.3-1.7.29-3.38.43-5.05.43-3.18,0-6.12-.54-8.8-1.61-2.68-1.08-5-2.65-6.96-4.73-1.96-2.08-3.48-4.65-4.57-7.71-1.09-3.06-1.64-6.58-1.64-10.55,0-3.21.49-6.21,1.48-9s2.4-5.21,4.25-7.25c1.85-2.05,4.11-3.65,6.78-4.82s5.67-1.75,9-1.75ZM543.19,292.48c-3.91,0-6.99,1.13-9.23,3.39-2.24,2.26-3.64,5.39-4.18,9.39h25.06c0-1.88-.26-3.6-.77-5.16-.52-1.56-1.27-2.91-2.27-4.05-1-1.14-2.22-2.02-3.66-2.64-1.44-.62-3.08-.93-4.93-.93Z"/><path class="cls-2" d="M603.85,295.44c-.24.33-.49.59-.73.77-.24.18-.59.27-1.05.27s-.95-.19-1.48-.57-1.21-.8-2.02-1.25-1.81-.87-2.98-1.25c-1.17-.38-2.6-.57-4.3-.57-2.24,0-4.23.4-5.96,1.21-1.73.8-3.18,1.96-4.34,3.48s-2.05,3.35-2.64,5.5c-.59,2.15-.89,4.56-.89,7.23s.32,5.27.96,7.44c.64,2.17,1.53,3.99,2.68,5.46,1.15,1.47,2.55,2.59,4.21,3.36,1.65.77,3.51,1.16,5.57,1.16s3.59-.23,4.87-.71c1.27-.47,2.33-.99,3.18-1.57s1.55-1.1,2.09-1.57c.55-.47,1.09-.71,1.64-.71.7,0,1.21.26,1.55.77l2.27,2.96c-2,2.46-4.5,4.25-7.5,5.39s-6.17,1.71-9.5,1.71c-2.88,0-5.56-.53-8.03-1.59-2.47-1.06-4.62-2.6-6.43-4.62-1.82-2.02-3.25-4.49-4.3-7.44-1.05-2.94-1.57-6.29-1.57-10.05,0-3.43.48-6.59,1.43-9.5s2.35-5.42,4.18-7.53c1.83-2.11,4.1-3.75,6.8-4.93s5.79-1.77,9.28-1.77c3.21,0,6.06.52,8.55,1.57,2.49,1.05,4.68,2.52,6.59,4.43l-2.14,2.91Z"/><path class="cls-2" d="M628.86,334.05c-3.64,0-6.43-1.02-8.39-3.05-1.96-2.03-2.93-4.96-2.93-8.78v-28.19h-5.55c-.49,0-.89-.14-1.23-.43-.33-.29-.5-.74-.5-1.34v-3.23l7.55-.96,1.86-14.23c.06-.46.26-.83.59-1.11s.76-.43,1.27-.43h4.09v15.87h13.19v5.87h-13.19v27.65c0,1.94.47,3.38,1.41,4.32.94.94,2.15,1.41,3.64,1.41.85,0,1.58-.11,2.21-.34s1.16-.48,1.61-.75c.46-.27.84-.52,1.16-.75.32-.23.6-.34.84-.34.42,0,.8.26,1.14.77l2.37,3.87c-1.39,1.3-3.08,2.33-5.05,3.07-1.97.74-4,1.11-6.09,1.11Z"/><path class="cls-2" d="M667.46,286.53c3.36,0,6.4.56,9.12,1.68,2.71,1.12,5.02,2.71,6.91,4.77,1.89,2.06,3.35,4.56,4.37,7.48,1.02,2.93,1.52,6.19,1.52,9.8s-.51,6.91-1.52,9.82c-1.02,2.91-2.47,5.4-4.37,7.46-1.89,2.06-4.2,3.65-6.91,4.75-2.71,1.11-5.75,1.66-9.12,1.66s-6.41-.55-9.12-1.66c-2.71-1.11-5.02-2.69-6.93-4.75-1.91-2.06-3.38-4.55-4.41-7.46-1.03-2.91-1.55-6.18-1.55-9.82s.51-6.87,1.55-9.8c1.03-2.92,2.5-5.42,4.41-7.48,1.91-2.06,4.22-3.65,6.93-4.77,2.71-1.12,5.75-1.68,9.12-1.68ZM667.46,327.63c4.55,0,7.94-1.52,10.19-4.57,2.24-3.05,3.37-7.3,3.37-12.75s-1.12-9.76-3.37-12.82c-2.24-3.06-5.64-4.59-10.19-4.59-2.3,0-4.31.39-6,1.18-1.7.79-3.12,1.92-4.25,3.41-1.14,1.49-1.99,3.31-2.55,5.48-.56,2.17-.84,4.62-.84,7.34s.28,5.17.84,7.32,1.41,3.96,2.55,5.43c1.14,1.47,2.55,2.6,4.25,3.39,1.7.79,3.7,1.18,6,1.18Z"/><path class="cls-2" d="M699.39,333.32v-46.07h4.64c.88,0,1.49.17,1.82.5.33.33.56.91.68,1.73l.55,7.18c1.58-3.21,3.52-5.72,5.84-7.53,2.32-1.8,5.04-2.71,8.16-2.71,1.27,0,2.43.14,3.46.43s1.99.69,2.87,1.21l-1.05,6.05c-.21.76-.68,1.14-1.41,1.14-.43,0-1.08-.14-1.96-.43-.88-.29-2.11-.43-3.68-.43-2.82,0-5.18.82-7.07,2.46-1.89,1.64-3.48,4.02-4.75,7.14v29.33h-8.09Z"/></g></svg>