<?xml version="1.0" encoding="UTF-8"?><svg id="Layer_1" xmlns="http://www.w3.org/2000/svg" width="734" height="539.47" viewBox="0 0 734 539.47"><defs><style>.cls-1{opacity:.7;}.cls-2{fill:#fff;stroke-width:0px;}</style></defs><path class="cls-2" d="M361.47,345.17c-39.98-10.07-72.99-33.01-99.02-68.82-26.03-35.81-39.05-75.58-39.05-119.3V51.78L361.47,0l138.07,51.78v105.28c0,24.45-4.17,47.96-12.51,70.55s-20.28,42.5-35.81,59.76l-55.23-55.23c-5.18,3.16-10.71,5.54-16.61,7.12-5.9,1.58-11.87,2.37-17.91,2.37-18.98,0-35.24-6.76-48.76-20.28s-20.28-29.77-20.28-48.76,6.76-35.24,20.28-48.76,29.77-20.28,48.76-20.28,35.24,6.76,48.76,20.28c13.52,13.52,20.28,29.77,20.28,48.76,0,6.33-.79,12.44-2.37,18.34s-3.96,11.58-7.12,17.04l25.89,25.89c5.75-11.79,10.21-24.16,13.38-37.11,3.16-12.94,4.75-26.18,4.75-39.7v-81.55l-103.55-38.83-103.55,38.83v81.55c0,34.81,9.78,66.45,29.34,94.92,19.56,28.48,44.3,47.46,74.21,56.95,7.48-2.3,14.6-5.25,21.36-8.85s13.45-7.84,20.06-12.73l24.16,24.16c-9.49,7.77-19.78,14.53-30.85,20.28-11.07,5.75-22.65,10.21-34.73,13.38ZM361.47,207.1c9.49,0,17.62-3.38,24.38-10.14s10.14-14.89,10.14-24.38-3.38-17.62-10.14-24.38-14.89-10.14-24.38-10.14-17.62,3.38-24.38,10.14c-6.76,6.76-10.14,14.89-10.14,24.38s3.38,17.62,10.14,24.38,14.89,10.14,24.38,10.14Z"/><g class="cls-1"><path class="cls-2" d="M32.24,517.37c-4,0-7.63-.67-10.88-2-3.25-1.33-6.02-3.34-8.31-6-2.29-2.67-4.08-5.95-5.35-9.83-1.28-3.89-1.91-8.41-1.91-13.58s.64-9.62,1.91-13.53c1.28-3.92,3.06-7.21,5.35-9.88,2.29-2.67,5.06-4.67,8.31-6,3.25-1.33,6.88-2,10.88-2s7.63.67,10.88,2c3.25,1.33,6.03,3.34,8.35,6,2.32,2.67,4.1,5.96,5.35,9.88,1.25,3.92,1.87,8.43,1.87,13.53s-.62,9.69-1.87,13.58c-1.25,3.89-3.03,7.17-5.35,9.83-2.32,2.67-5.11,4.67-8.35,6-3.25,1.33-6.88,2-10.88,2ZM32.24,507.18c4.35,0,7.82-1.45,10.4-4.35,2.58-2.9,3.87-6.96,3.87-12.18v-9.4c0-5.22-1.29-9.28-3.87-12.18-2.58-2.9-6.05-4.35-10.4-4.35s-7.82,1.45-10.4,4.35c-2.58,2.9-3.87,6.96-3.87,12.18v9.4c0,5.22,1.29,9.28,3.87,12.18,2.58,2.9,6.05,4.35,10.4,4.35Z"/><path class="cls-2" d="M69.66,470.89h11.14v7.48h.35c.81-2.61,2.35-4.68,4.61-6.22,2.26-1.54,4.9-2.31,7.92-2.31,5.8,0,10.23,2.04,13.27,6.14,3.05,4.09,4.57,9.94,4.57,17.54s-1.52,13.55-4.57,17.67c-3.05,4.12-7.47,6.18-13.27,6.18-3.02,0-5.64-.78-7.88-2.35-2.23-1.57-3.79-3.65-4.66-6.27h-.35v24.98h-11.14v-62.83ZM90.11,508.14c2.9,0,5.25-.96,7.05-2.87,1.8-1.92,2.7-4.5,2.7-7.75v-7.83c0-3.25-.9-5.84-2.7-7.79-1.8-1.94-4.15-2.92-7.05-2.92-2.67,0-4.89.67-6.66,2-1.77,1.33-2.65,3.1-2.65,5.31v14.45c0,2.38.88,4.21,2.65,5.48,1.77,1.28,3.99,1.91,6.66,1.91Z"/><path class="cls-2" d="M140.24,517.37c-3.37,0-6.37-.57-9.01-1.7-2.64-1.13-4.87-2.73-6.7-4.79-1.83-2.06-3.23-4.55-4.22-7.48-.99-2.93-1.48-6.22-1.48-9.88s.48-6.84,1.44-9.75c.96-2.9,2.33-5.38,4.13-7.44,1.8-2.06,4-3.65,6.61-4.79,2.61-1.13,5.57-1.7,8.88-1.7,3.54,0,6.61.61,9.22,1.83,2.61,1.22,4.76,2.87,6.44,4.96,1.68,2.09,2.94,4.51,3.79,7.27.84,2.76,1.26,5.7,1.26,8.83v3.66h-30.2v1.12c0,3.28.93,5.92,2.78,7.91,1.86,1.99,4.61,2.98,8.27,2.98,2.78,0,5.06-.58,6.83-1.73,1.77-1.15,3.35-2.62,4.74-4.41l6,6.72c-1.86,2.62-4.4,4.67-7.61,6.15-3.22,1.48-6.95,2.22-11.18,2.22ZM140.06,478.2c-2.96,0-5.31.99-7.05,2.96-1.74,1.97-2.61,4.53-2.61,7.66v.7h18.62v-.78c0-3.13-.77-5.67-2.31-7.61-1.54-1.94-3.76-2.92-6.66-2.92Z"/><path class="cls-2" d="M170.44,516.32v-45.43h11.14v7.57h.44c.93-2.44,2.39-4.48,4.4-6.14,2-1.65,4.77-2.48,8.31-2.48,4.7,0,8.3,1.54,10.79,4.61,2.49,3.08,3.74,7.46,3.74,13.14v28.72h-11.14v-27.59c0-3.25-.58-5.69-1.74-7.31-1.16-1.62-3.08-2.44-5.74-2.44-1.16,0-2.28.16-3.35.48-1.07.32-2.03.78-2.87,1.39-.84.61-1.52,1.36-2.04,2.26-.52.9-.78,1.96-.78,3.18v30.02h-11.14Z"/><path class="cls-2" d="M241.19,517.37c-5.22,0-9.65-.93-13.27-2.79-3.63-1.86-6.74-4.3-9.35-7.32l7.75-7.5c2.09,2.42,4.42,4.26,7.01,5.53,2.58,1.27,5.44,1.9,8.57,1.9,3.54,0,6.21-.76,8.01-2.29,1.8-1.53,2.7-3.58,2.7-6.17,0-2.02-.58-3.66-1.74-4.92-1.16-1.27-3.34-2.19-6.53-2.76l-5.74-.86c-12.13-1.92-18.19-7.81-18.19-17.69,0-2.73.51-5.2,1.52-7.41,1.01-2.21,2.48-4.09,4.39-5.66,1.91-1.57,4.22-2.77,6.92-3.62,2.7-.84,5.76-1.26,9.18-1.26,4.58,0,8.59.76,12.01,2.27,3.42,1.51,6.35,3.75,8.79,6.71l-7.83,7.41c-1.51-1.84-3.34-3.33-5.48-4.49-2.15-1.15-4.85-1.73-8.09-1.73s-5.79.62-7.44,1.85c-1.65,1.24-2.48,2.98-2.48,5.22s.67,4,2,5.09c1.33,1.09,3.48,1.9,6.44,2.42l5.66,1.05c6.15,1.1,10.69,3.06,13.62,5.88,2.93,2.82,4.39,6.75,4.39,11.8,0,2.9-.51,5.53-1.52,7.88-1.02,2.35-2.5,4.39-4.44,6.1-1.94,1.71-4.32,3.04-7.14,3.96-2.81.93-6.05,1.39-9.7,1.39Z"/><path class="cls-2" d="M293.23,517.37c-5.22,0-9.65-.93-13.27-2.79-3.63-1.86-6.74-4.3-9.35-7.32l7.75-7.5c2.09,2.42,4.42,4.26,7.01,5.53,2.58,1.27,5.44,1.9,8.57,1.9,3.54,0,6.21-.76,8.01-2.29,1.8-1.53,2.7-3.58,2.7-6.17,0-2.02-.58-3.66-1.74-4.92-1.16-1.27-3.34-2.19-6.53-2.76l-5.74-.86c-12.13-1.92-18.19-7.81-18.19-17.69,0-2.73.51-5.2,1.52-7.41,1.01-2.21,2.48-4.09,4.39-5.66,1.91-1.57,4.22-2.77,6.92-3.62,2.7-.84,5.76-1.26,9.18-1.26,4.58,0,8.59.76,12.01,2.27,3.42,1.51,6.35,3.75,8.79,6.71l-7.83,7.41c-1.51-1.84-3.34-3.33-5.48-4.49-2.15-1.15-4.85-1.73-8.09-1.73s-5.79.62-7.44,1.85c-1.65,1.24-2.48,2.98-2.48,5.22s.67,4,2,5.09c1.33,1.09,3.48,1.9,6.44,2.42l5.66,1.05c6.15,1.1,10.69,3.06,13.62,5.88,2.93,2.82,4.39,6.75,4.39,11.8,0,2.9-.51,5.53-1.52,7.88-1.02,2.35-2.5,4.39-4.44,6.1-1.94,1.71-4.32,3.04-7.14,3.96-2.81.93-6.05,1.39-9.7,1.39Z"/><path class="cls-2" d="M327.52,516.32v-60.74h39.07v10.18h-27.59v14.71h24.02v10.18h-24.02v25.67h-11.49Z"/><path class="cls-2" d="M398.27,516.32v-60.74h40.03v10.18h-28.54v14.71h25.24v10.18h-25.24v15.49h28.54v10.18h-40.03Z"/><path class="cls-2" d="M445,516.32l15.49-23.06-15.14-22.37h12.71l9.4,15.05h.35l9.31-15.05h11.84l-15.4,22.54,15.49,22.89h-12.71l-9.57-15.66h-.35l-9.57,15.66h-11.84Z"/><path class="cls-2" d="M497.12,470.89h11.14v7.48h.35c.81-2.61,2.35-4.68,4.61-6.22,2.26-1.54,4.9-2.31,7.92-2.31,5.8,0,10.23,2.04,13.27,6.14,3.05,4.09,4.57,9.94,4.57,17.54s-1.52,13.55-4.57,17.67c-3.05,4.12-7.47,6.18-13.27,6.18-3.02,0-5.64-.78-7.88-2.35-2.23-1.57-3.79-3.65-4.66-6.27h-.35v24.98h-11.14v-62.83ZM517.58,508.14c2.9,0,5.25-.96,7.05-2.87,1.8-1.92,2.7-4.5,2.7-7.75v-7.83c0-3.25-.9-5.84-2.7-7.79-1.8-1.94-4.15-2.92-7.05-2.92-2.67,0-4.89.67-6.66,2-1.77,1.33-2.65,3.1-2.65,5.31v14.45c0,2.38.88,4.21,2.65,5.48,1.77,1.28,3.99,1.91,6.66,1.91Z"/><path class="cls-2" d="M560.48,516.32c-3.83,0-6.64-.96-8.44-2.87-1.8-1.91-2.7-4.61-2.7-8.09v-53.43h11.14v55.43h6v8.96h-6Z"/><path class="cls-2" d="M592.94,517.37c-3.25,0-6.17-.55-8.75-1.65-2.58-1.1-4.79-2.7-6.61-4.79-1.83-2.09-3.23-4.6-4.22-7.53-.99-2.93-1.48-6.22-1.48-9.88s.49-6.93,1.48-9.83c.99-2.9,2.39-5.38,4.22-7.44,1.83-2.06,4.03-3.64,6.61-4.74,2.58-1.1,5.5-1.65,8.75-1.65s6.18.55,8.79,1.65c2.61,1.1,4.83,2.68,6.66,4.74,1.83,2.06,3.23,4.54,4.22,7.44.99,2.9,1.48,6.18,1.48,9.83s-.49,6.95-1.48,9.88c-.99,2.93-2.39,5.44-4.22,7.53-1.83,2.09-4.05,3.68-6.66,4.79-2.61,1.1-5.54,1.65-8.79,1.65ZM592.94,508.4c2.96,0,5.28-.9,6.96-2.7,1.68-1.8,2.52-4.44,2.52-7.92v-8.44c0-3.42-.84-6.03-2.52-7.83-1.68-1.8-4-2.7-6.96-2.7s-5.19.9-6.88,2.7c-1.68,1.8-2.52,4.41-2.52,7.83v8.44c0,3.48.84,6.12,2.52,7.92,1.68,1.8,3.97,2.7,6.88,2.7Z"/><path class="cls-2" d="M623.92,516.32v-45.43h11.14v9.4h.44c.29-1.22.74-2.39,1.35-3.52.61-1.13,1.41-2.13,2.39-3,.99-.87,2.16-1.57,3.53-2.09,1.36-.52,2.94-.78,4.74-.78h2.44v10.53h-3.48c-3.77,0-6.61.55-8.53,1.65-1.92,1.1-2.87,2.9-2.87,5.4v27.85h-11.14Z"/><path class="cls-2" d="M676.05,517.37c-3.37,0-6.37-.57-9.01-1.7-2.64-1.13-4.87-2.73-6.7-4.79-1.83-2.06-3.23-4.55-4.22-7.48-.99-2.93-1.48-6.22-1.48-9.88s.48-6.84,1.44-9.75c.96-2.9,2.33-5.38,4.13-7.44,1.8-2.06,4-3.65,6.61-4.79,2.61-1.13,5.57-1.7,8.88-1.7,3.54,0,6.61.61,9.22,1.83,2.61,1.22,4.76,2.87,6.44,4.96s2.94,4.51,3.79,7.27c.84,2.76,1.26,5.7,1.26,8.83v3.66h-30.2v1.12c0,3.28.93,5.92,2.78,7.91,1.86,1.99,4.61,2.98,8.27,2.98,2.79,0,5.06-.58,6.83-1.73,1.77-1.15,3.35-2.62,4.74-4.41l6,6.72c-1.86,2.62-4.39,4.67-7.62,6.15-3.22,1.48-6.95,2.22-11.18,2.22ZM675.87,478.2c-2.96,0-5.31.99-7.05,2.96-1.74,1.97-2.61,4.53-2.61,7.66v.7h18.62v-.78c0-3.13-.77-5.67-2.31-7.61-1.54-1.94-3.76-2.92-6.66-2.92Z"/><path class="cls-2" d="M706.24,516.32v-45.43h11.14v9.4h.44c.29-1.22.74-2.39,1.35-3.52.61-1.13,1.41-2.13,2.39-3,.99-.87,2.16-1.57,3.53-2.09,1.36-.52,2.94-.78,4.74-.78h2.44v10.53h-3.48c-3.77,0-6.61.55-8.53,1.65-1.92,1.1-2.87,2.9-2.87,5.4v27.85h-11.14Z"/></g></svg>