<?xml version="1.0" encoding="UTF-8"?><svg id="Layer_1" xmlns="http://www.w3.org/2000/svg" width="729.4" height="235.9" viewBox="0 0 729.4 235.9"><defs><style>.cls-1{stroke-width:0px;}</style></defs><g id="h"><path class="cls-1" d="M17,190.9h61.9c11.5,0,17.3-5.8,17.3-17.4V17.6c0-11.7-5.8-17.6-17.3-17.6H17C5.7,0,0,5.9,0,17.6v155.8c.1,11.7,5.7,17.5,17,17.5ZM28.6,24.6h39.1v141.8H28.6V24.6Z"/><path class="cls-1" d="M200,82.2c0-10-5.1-15-15.2-15-4.8,0-11.3.7-19.5,2-6.5,1.1-13,2.1-19.5,3v-4.5h-27.9v168.2h27.9v-45c2,0,5.1.1,9.6.2,4.4.2,7.9.2,10.3.2,10.6,0,18.5-1.4,23.7-4.3,7.2-4,10.7-11,10.7-21v-83.8h-.1ZM171.9,158.4c0,6.2-3,9.3-8.9,9.3h-17.3v-76.2l26.2-.5v67.4h0Z"/><path class="cls-1" d="M235.4,190.9h48.2c10.5,0,15.7-5.1,15.7-15.2v-25.7h-26.7v20.5h-26.2v-34.5h45.2l7.7-7.7v-45.2c0-10.2-5.2-15.2-15.7-15.2h-48.2c-10.5,0-15.7,5.1-15.7,15.2v92.7c0,10,5.3,15.1,15.7,15.1ZM246.4,88.2h26.2v29.5h-26.2v-29.5Z"/><path class="cls-1" d="M347.5,91.5l26.2-.5v99.9h28v-108.7c0-10-5.1-15-15.2-15-5.1,0-11.7.7-19.6,2-6.4,1-12.9,2-19.4,3v-4.5h-27.9v123.2h27.9v-99.4Z"/><path class="cls-1" d="M439.9,190.9h57.4c11.5,0,17.3-5.8,17.3-17.4v-45.5c0-6.4-2.1-11.6-6.2-15.5l-57.1-53.9V24.1h34.9v36h28.5V17.4c0-11.5-5.8-17.3-17.3-17.3h-57.4c-11.5,0-17.2,5.9-17.2,17.6v42.4c0,6.2,2.1,11.3,6.2,15.2l57.2,54.1v37.4h-34.9v-38.9h-28.5v45.5c0,11.7,5.7,17.5,17.1,17.5Z"/><path class="cls-1" d="M628.8,173.4v-45.5c0-6.4-2.1-11.6-6.2-15.5l-57.2-53.9V24.1h34.9v36h28.5V17.4c0-11.5-5.8-17.3-17.3-17.3h-57.4c-11.5,0-17.2,5.9-17.2,17.6v42.4c0,6.2,2.1,11.3,6.2,15.2l57.2,54.1v37.4h-34.9v-38.9h-28.5v45.5c0,11.6,5.7,17.4,17.2,17.4h57.4c11.6.1,17.3-5.7,17.3-17.4Z"/><polygon class="cls-1" points="651.5 0 651.5 190.9 680.1 190.9 680.1 106.5 722.3 106.5 722.3 81.7 680.1 81.7 680.1 25.3 729.4 25.3 729.4 0 651.5 0"/></g></svg>