<?xml version="1.0" encoding="UTF-8"?>
<svg id="Layer_1" data-name="Layer 1" xmlns="http://www.w3.org/2000/svg" viewBox="0 0 80 80">
  <path d="M13.08,42.12c-1.1,0-2-.9-2-2,0-1.1.9-2,2-2v4ZM13.91,40.12v2s0-2,0-2ZM14.91,40.13v-2s0,2,0,2ZM15.91,40.13v-2s0,2,0,2ZM16.91,40.13v2s0-2,0-2ZM17.91,40.13v-2s0,2,0,2ZM18.91,40.13v2s0-2,0-2ZM19.91,40.13v2h0v-2ZM38.88,38.13c1.1,0,2,.9,2,2s-.9,2-2,2v-4ZM38.91,42.13c-1.1,0-2-.9-2-2s.9-2,2-2v4ZM66.91,38.13c1.1,0,2,.9,2,2s-.9,2-2,2v-4ZM13.09,38.12h.83s0,4,0,4h-.83s0-4,0-4ZM13.92,38.12h1s0,4,0,4h-1s0-4,0-4ZM14.92,38.13h1s0,4,0,4h-1s0-4,0-4ZM15.92,38.13h1s0,4,0,4h-1s0-4,0-4ZM16.92,38.13h1s0,4,0,4h-1s0-4,0-4ZM17.92,38.13h1s0,4,0,4h-1s0-4,0-4ZM18.92,38.13h1s0,4,0,4h-1s0-4,0-4ZM19.91,38.13h18.96v4h-18.96v-4ZM38.91,38.13h28v4h-28v-4Z" style="fill: #56ccf2; stroke-width: 0px;"/>
  <path d="M38.91,68.09l-24.29-24.29c-2.05-2.05-2.05-5.37,0-7.42l24.29-24.29" style="fill: none; stroke: #2f80ed; stroke-linecap: round; stroke-linejoin: round; stroke-width: 4px;"/>
</svg>