<?xml version="1.0" encoding="UTF-8"?>
<svg id="Layer_1" data-name="Layer 1" xmlns="http://www.w3.org/2000/svg" viewBox="0 0 80 80">
  <path d="M31.52,52.24v7.52c0,3.31,2.69,6,6,6h4c3.31,0,6-2.69,6-6v-7.52" style="fill: #f2994a; fill-rule: evenodd; stroke-width: 0px;"/>
  <path d="M47.52,54.76h-16v3h16v-3ZM47.52,59.76h-16c0,1.09.29,2.12.8,3h14.4c.51-.88.8-1.91.8-3h0Z" style="fill: #f2f2f2; fill-rule: evenodd; stroke-width: 0px;"/>
  <path d="M32.45,16.69c4.53-1.88,9.61-1.88,14.14,0,4.53,1.88,8.12,5.47,10,10,1.88,4.53,1.88,9.61,0,14.14-1.88,4.53-5.47,8.12-10,10-4.53,1.88-9.61,1.88-14.14,0-4.53-1.88-8.12-5.47-10-10-1.88-4.53-1.88-9.61,0-14.14,1.88-4.53,5.47-8.12,10-10Z" style="fill: none; stroke: #aaa; stroke-linecap: round; stroke-linejoin: round; stroke-width: 6px;"/>
</svg>