<svg width="80" height="80" viewBox="0 0 80 80" fill="none" xmlns="http://www.w3.org/2000/svg">
  <rect x="39.9409" y="6" width="48" height="48" rx="4" transform="rotate(45 39.9409 6)" fill="#F2C94C" stroke="#F2C94C" stroke-width="4" stroke-linecap="round" stroke-linejoin="round" />
  <path d="M48.052 35.25C49.1566 35.25 50.052 34.3546 50.052 33.25C50.052 32.1454 49.1566 31.25 48.052 31.25V35.25ZM24.9409 51.25C24.9409 52.3546 25.8363 53.25 26.9409 53.25C28.0455 53.25 28.9409 52.3546 28.9409 51.25H24.9409ZM48.052 31.25H36.9409V35.25H48.052V31.25ZM24.9409 43.25V51.25H28.9409V43.25H24.9409ZM36.9409 31.25C30.3135 31.25 24.9409 36.6226 24.9409 43.25H28.9409C28.9409 38.8317 32.5226 35.25 36.9409 35.25V31.25Z" fill="#333333" />
  <path d="M48.052 38.2603L48.052 28.2397C48.052 27.0869 49.4174 26.4788 50.2743 27.25L55.5115 31.9635C56.2754 32.6511 56.2754 33.8489 55.5115 34.5365L50.2742 39.25C49.4174 40.0212 48.052 39.4131 48.052 38.2603Z" fill="#333333" stroke="#333333" stroke-width="4" stroke-linecap="round" stroke-linejoin="round" />
</svg>