<svg width="80" height="80" viewBox="0 0 80 80" fill="none" xmlns="http://www.w3.org/2000/svg">
  <path d="M29.0544 17.2712C35.9714 13.9402 44.0288 13.9402 50.9457 17.2712C57.8627 20.6022 62.8863 26.9018 64.5947 34.3865C66.303 41.8713 64.5101 49.7266 59.7234 55.7289C54.9367 61.7312 47.6773 65.2272 40.0001 65.2272C32.3228 65.2272 25.0634 61.7312 20.2767 55.7289C15.49 49.7266 13.6971 41.8713 15.4054 34.3865C17.1138 26.9018 22.1375 20.6022 29.0544 17.2712Z" fill="#F2C94C" />
  <path d="M35.2768 46.6693C34.2158 46.9762 33.6044 48.0852 33.9113 49.1462C34.2182 50.2073 35.3271 50.8187 36.3882 50.5118L35.2768 46.6693ZM45.7403 49.1418L46.5057 47.294L46.5057 47.294L45.7403 49.1418ZM49.1925 53.8076C49.9735 54.5887 51.2398 54.5887 52.0209 53.8076C52.8019 53.0266 52.8019 51.7602 52.0209 50.9792L49.1925 53.8076ZM36.3882 50.5118C37.5598 50.173 38.7756 50 40.0001 50V46C38.3989 46 36.809 46.2262 35.2768 46.6693L36.3882 50.5118ZM40.0001 50C41.7073 50 43.3977 50.3363 44.975 50.9896L46.5057 47.294C44.4432 46.4397 42.2325 46 40.0001 46V50ZM44.975 50.9896C46.5522 51.6429 47.9853 52.6005 49.1925 53.8076L52.0209 50.9792C50.4423 49.4006 48.5682 48.1484 46.5057 47.294L44.975 50.9896Z" fill="#333333" />
  <circle cx="31" cy="34" r="2" stroke="#4F4F4F" stroke-width="4" stroke-linecap="round" stroke-linejoin="round" />
  <circle cx="49" cy="34" r="2" stroke="#4F4F4F" stroke-width="4" stroke-linecap="round" stroke-linejoin="round" />
  <path d="M29.1573 43.3667C29.8451 41.7368 32.1549 41.7368 32.8427 43.3667L33.1213 44.027L35.6377 48.2353C36.4978 49.6737 36.6448 51.4405 36.0452 53.0055C35.534 54.3398 34.5103 55.4281 33.2062 56.012C31.8026 56.6406 30.1974 56.6406 28.7938 56.012C27.4897 55.4281 26.466 54.3398 25.9548 53.0055C25.3552 51.4405 25.5022 49.6737 26.3623 48.2353L28.8787 44.027L29.1573 43.3667Z" fill="#56CCF2" />
</svg>