<svg width="80" height="80" viewBox="0 0 80 80" fill="none" xmlns="http://www.w3.org/2000/svg">
  <path fill-rule="evenodd" clip-rule="evenodd" d="M27.4222 20.1952C22.0201 19.047 16.9891 21.1816 16.1854 24.9632L4.49494 51.1038C3.11702 57.5864 9.00691 64.331 17.6504 66.1682C26.2938 68.0054 34.4177 64.2396 35.7957 57.757L35.7483 29.1214C36.5521 25.3399 32.8244 21.3435 27.4222 20.1952ZM18.6899 61.2774C24.6323 62.5405 30.1011 60.4989 30.9049 56.7174C31.7087 52.9359 27.5431 48.8465 21.6007 47.5834C15.6583 46.3203 10.1895 48.3619 9.38568 52.1434C8.58189 55.9249 12.7475 60.0143 18.6899 61.2774Z" fill="#F2C94C" />
  <path fill-rule="evenodd" clip-rule="evenodd" d="M28.6697 14.3265C32.4512 15.1303 35.1444 17.5336 34.6851 19.6944L33.8533 23.608C32.3463 22.0223 30.0882 20.762 27.4223 20.1954C24.7564 19.6287 22.1809 19.8615 20.1592 20.6972L20.991 16.7837C21.4504 14.6228 24.8882 13.5227 28.6697 14.3265Z" fill="#EB5757" />
  <ellipse cx="20.1453" cy="54.4304" rx="11" ry="7" transform="rotate(12 20.1453 54.4304)" fill="#56CCF2" />
  <path fill-rule="evenodd" clip-rule="evenodd" d="M52.3733 20.1952C57.7754 19.047 62.8063 21.1816 63.6101 24.9632L75.3005 51.1038C76.6784 57.5864 70.7886 64.331 62.1451 66.1682C53.5017 68.0054 45.3777 64.2396 43.9998 57.757L44.0472 29.1214C43.2434 25.3399 46.9711 21.3435 52.3733 20.1952ZM61.1055 61.2774C55.1632 62.5405 49.6943 60.4989 48.8905 56.7174C48.0868 52.9359 52.2524 48.8465 58.1948 47.5834C64.1372 46.3203 69.606 48.3619 70.4098 52.1434C71.2136 55.9249 67.0479 60.0143 61.1055 61.2774Z" fill="#F2C94C" />
  <path fill-rule="evenodd" clip-rule="evenodd" d="M51.1257 14.3265C47.3442 15.1303 44.6511 17.5336 45.1104 19.6944L45.9422 23.608C47.4492 22.0223 49.7073 20.762 52.3732 20.1954C55.0391 19.6287 57.6146 19.8615 59.6363 20.6972L58.8044 16.7837C58.3451 14.6228 54.9073 13.5227 51.1257 14.3265Z" fill="#EB5757" />
  <ellipse rx="11" ry="7" transform="matrix(-0.978148 0.207912 0.207912 0.978148 59.6502 54.4304)" fill="#56CCF2" />
  <path fill-rule="evenodd" clip-rule="evenodd" d="M44.0446 30.7476H35.751L35.7774 46.7476H44.0182L44.0446 30.7476Z" fill="#F2994A" />
</svg>