<?xml version="1.0" encoding="UTF-8"?>
<svg id="Layer_1" data-name="Layer 1" xmlns="http://www.w3.org/2000/svg" viewBox="0 0 80 80">
  <path d="M49.09,18.05c3.58-1.68,7.98-1.04,10.94,1.92,2.96,2.96,3.6,7.36,1.92,10.94,3.72,1.35,6.38,4.91,6.38,9.09s-2.66,7.75-6.38,9.09c1.68,3.58,1.04,7.98-1.92,10.94-2.96,2.96-7.36,3.6-10.94,1.92-1.35,3.72-4.91,6.38-9.09,6.38s-7.75-2.66-9.09-6.38c-3.58,1.68-7.98,1.04-10.94-1.92-2.96-2.96-3.6-7.36-1.92-10.94-3.72-1.35-6.38-4.91-6.38-9.09s2.66-7.75,6.38-9.09c-1.68-3.58-1.04-7.98,1.92-10.94,2.96-2.96,7.36-3.6,10.94-1.92,1.35-3.72,4.91-6.38,9.09-6.38s7.75,2.66,9.09,6.38Z" style="fill: #ccc; fill-rule: evenodd; stroke-width: 0px;"/>
  <path d="M27.01,40.53l25.98-.12" style="fill: none; stroke: #eb5757; stroke-linecap: round; stroke-linejoin: round; stroke-width: 4px;"/>
</svg>